<?xml version="1.0" encoding="UTF-8"?>
<svg width="1237px" height="621px" viewBox="0 0 1237 621" version="1.1" xmlns="http://www.w3.org/2000/svg" xmlns:xlink="http://www.w3.org/1999/xlink">
    <!-- Generator: Sketch 46.2 (44496) - http://www.bohemiancoding.com/sketch -->
    <title>logo</title>
    <desc>Created with Sketch.</desc>
    <defs></defs>
    <g id="Page-1" stroke="none" stroke-width="1" fill="none" fill-rule="evenodd">
        <g id="Custom-Dark" transform="translate(-342.000000, -230.000000)" fill="#FFFFFF">
            <g id="logo" transform="translate(342.000000, 230.000000)">
                <polyline id="Fill-135" points="358.636429 201 358.636429 402.567834 392 402.567834 392 416 260 416 260 402.567834 293.459107 402.567834 293.459107 214.421497 266.379735 214.421497 266.379735 201 358.636429 201"></polyline>
                <polyline id="Fill-136" points="512.564812 201 512.564812 402.567834 546 402.567834 546 416 414 416 414 402.567834 447.413959 402.567834 447.413959 214.421497 420.40045 214.421497 420.40045 201 512.564812 201"></polyline>
                <path d="M579.484174,342.995052 C583.511219,352.350481 587.613235,361.312109 591.800933,369.965083 C596.010052,378.671273 600.958176,386.323779 606.645306,393.007749 C612.364567,399.659789 619.240531,405.087854 627.294621,409.24937 C635.338,413.410886 645.202118,415.496966 656.972656,415.496966 C659.971519,415.496966 663.998564,415.31603 669.04308,415.007376 C674.076886,414.677434 679.02501,413.240594 683.887453,410.739427 C688.717765,408.248903 692.937593,404.449258 696.450547,399.223415 C699.984922,394.082719 701.730689,386.68565 701.730689,377.00028 C701.730689,373.988236 701.270149,370.922976 700.477592,367.751284 C699.652905,364.590234 697.885718,361.312109 695.229582,357.991411 C692.509184,354.681356 688.567821,351.424517 683.362652,348.274111 C678.178903,345.102418 671.056603,341.866866 662.006462,338.503594 L621.254054,323.517879 C616.552265,321.846886 611.507748,319.590514 606.184766,316.759406 C600.818943,313.938941 595.838688,310.181869 591.308263,305.48819 C586.788548,300.837083 583.029259,295.2813 579.976844,288.767622 C576.977981,282.253945 575.47855,274.495005 575.47855,265.51209 C575.47855,255.85865 577.470652,246.6948 581.529827,238.009896 C585.535451,229.356923 591.15832,221.768276 598.366302,215.265241 C605.584994,208.740921 614.281697,203.600224 624.520673,199.768649 C634.727518,195.926431 645.908993,194 657.979417,194 C664.330581,194 670.296177,194.681169 675.822653,196.02222 C681.349129,197.352628 686.393646,198.746896 690.924071,200.258239 C695.433076,201.758939 699.470831,203.174494 703.015916,204.504902 C706.53958,205.856596 709.281398,206.495192 711.29492,206.495192 C715.000658,206.495192 717.346198,205.856596 718.320828,204.504902 C719.3383,203.174494 720.195118,201.673793 720.848441,200.013444 L734.332615,200.013444 L734.332615,260.999346 L721.341112,260.999346 C717.988811,253.027542 714.572249,245.343105 711.048585,238.009896 C707.535631,230.676688 703.358643,224.258799 698.46407,218.777518 C693.612338,213.264308 687.646742,208.932499 680.599414,205.77145 C673.552085,202.589114 664.823251,201.013911 654.466463,201.013911 C643.37067,201.013911 633.228086,203.940809 624.006582,209.773317 C614.774367,215.605826 610.201101,224.184297 610.201101,235.508729 C610.201101,237.871534 610.500987,240.511063 611.165021,243.523107 C611.850476,246.492578 613.371328,249.579124 615.727577,252.772103 C618.040986,255.954439 621.746724,259.094202 626.78053,262.265895 C631.825046,265.426944 638.518937,268.524134 646.915754,271.493605 L689.660264,285.98973 C707.760546,292.333115 721.501765,300.688078 730.916053,311.0014 C740.287501,321.325366 745,334.501727 745,350.48791 C745,361.514331 742.590199,371.401923 737.727757,380.257119 C732.843894,389.080385 726.48202,396.583886 718.599294,402.735692 C710.716568,408.919429 701.591456,413.666324 691.191827,416.987023 C680.770777,420.329008 670.071262,422 658.986178,422 C652.945611,422 646.390953,421.318831 639.375755,419.97778 C632.317717,418.658015 625.527434,417.061526 618.994196,415.241527 C612.450248,413.410886 606.495363,411.814396 601.11883,410.494632 C595.742296,409.174867 591.586729,408.504341 588.555735,408.504341 C585.846048,408.504341 583.907497,409.004575 582.750793,409.983755 C581.561958,411.005508 580.490935,412.846793 579.484174,415.496966 L566,415.496966 L566,342.995052 L579.484174,342.995052" id="Fill-137"></path>
                <polyline id="Fill-138" points="862.599212 201 862.599212 402.567834 896 402.567834 896 416 764 416 764 402.567834 797.411405 402.567834 797.411405 214.421497 770.359527 214.421497 770.359527 201 862.599212 201"></polyline>
                <path d="M360,114.505288 C360,134.082377 344.107004,150 324.478838,150 C304.892996,150 289,134.082377 289,114.505288 C289,94.907046 304.892996,79 324.478838,79 C344.107004,79 360,94.907046 360,114.505288" id="Fill-139"></path>
                <path d="M515,87.5 C515,107.128167 499.092954,123 479.473559,123 C459.907046,123 444,107.128167 444,87.5 C444,67.8824143 459.907046,52 479.473559,52 C499.092954,52 515,67.8824143 515,87.5" id="Fill-140"></path>
                <path d="M862,114.505288 C862,134.082377 846.142239,150 826.505293,150 C806.878932,150 791,134.082377 791,114.505288 C791,94.907046 806.878932,79 826.505293,79 C846.142239,79 862,94.907046 862,114.505288" id="Fill-141"></path>
                <path d="M548,66.2075742 C847.857705,-21.9761527 1112.82268,48.0828135 1134.09327,175.670047 C1148.81414,263.949672 1054.49391,354.157917 937.996361,414.616407 L1091.33875,415 C1179.55729,343.268143 1246.27056,260.966173 1235.94462,166.719548 C1218.03423,2.94672515 876.670073,-58.4494366 548,66.2075742" id="Fill-142"></path>
                <path d="M1064,447.922736 L799.032061,447.922736 C756.878555,467.6655 696.62271,488.985979 647.358332,503.590507 C370.460759,585.759634 100.69538,537.468749 67.7209758,398.491205 C46.8894255,310.853375 124.074904,211.894371 254.895761,134 C69.064259,234.590021 -20.9676974,348.601284 4.12824404,454.30822 C43.9150127,621.876526 387.433035,673.504067 776.942515,561.230423 C846.260192,541.253134 911.292156,517.832588 970.993631,491.960186 L1064,447.922736" id="Fill-144"></path>
            </g>
        </g>
    </g>
</svg>